HIERARCHY
ROOT Hips
{
	OFFSET 0.000000 0.000000 0.000000
	CHANNELS 6 Xposition Yposition Zposition Zrotation Yrotation Xrotation 
	JOINT LHipJoint
	{
		OFFSET 0.000000 0.000000 0.000000
		CHANNELS 3 Zrotation Yrotation Xrotation
		JOINT LeftUpLeg
		{
			OFFSET 1.363060 -1.794630 0.839290
			CHANNELS 3 Zrotation Yrotation Xrotation
			JOINT LeftLeg
			{
				OFFSET 2.448110 -6.726130 0.000000
				CHANNELS 3 Zrotation Yrotation Xrotation
				JOINT LeftFoot
				{
					OFFSET 2.562200 -7.039590 0.000000
					CHANNELS 3 Zrotation Yrotation Xrotation
					JOINT LeftToeBase
					{
						OFFSET 0.157640 -0.433110 2.322550
						CHANNELS 3 Zrotation Yrotation Xrotation
						End Site
						{
							OFFSET 0.000000 0.000000 0.000000
						}
					}
				}
			}
		}
	}
	JOINT RHipJoint
	{
		OFFSET 0.000000 0.000000 0.000000
		CHANNELS 3 Zrotation Yrotation Xrotation
		JOINT RightUpLeg
		{
			OFFSET -1.305520 -1.794630 0.839290
			CHANNELS 3 Zrotation Yrotation Xrotation
			JOINT RightLeg
			{
				OFFSET -2.542530 -6.985550 0.000000
				CHANNELS 3 Zrotation Yrotation Xrotation
				JOINT RightFoot
				{
					OFFSET -2.568260 -7.056230 0.000000
					CHANNELS 3 Zrotation Yrotation Xrotation
					JOINT RightToeBase
					{
						OFFSET -0.164730 -0.452590 2.363150
						CHANNELS 3 Zrotation Yrotation Xrotation
						End Site
						{
							OFFSET 0.000000 0.000000 0.000000
						}
					}
				}
			}
		}
	}
}
MOTION
Frames: 33
Frame Time: 0.008333
-12.187952 15.988249 -0.331044 17.867434 87.330496 45.958862 -10.001005 2.364798 4.648504 -13.254756 -3.929209 -29.763695 -2.314491 0.054001 37.719739 3.421449 9.466430 -32.241739 -5.123000 0.000000 -27.505300 11.764653 -2.567690 1.869010 -1.171878 -6.538853 -31.866026 -1.350118 -3.573800 66.208543 -2.078944 -10.564219 0.936594 -1.590500 -0.000001 -34.584200
-11.916327 16.047300 -0.343600 7.286577 87.195916 35.394702 -10.216333 2.482784 4.586267 -12.632826 -3.068800 -27.749944 -2.319650 -0.146803 35.180514 3.180867 9.033264 -30.628027 -4.633500 0.000000 -29.972900 11.588236 -2.340216 1.971971 -0.614179 -6.035648 -34.242619 -1.337042 -3.663517 67.186163 -1.990339 -9.980589 -0.761391 -1.262500 0.000001 -33.939400
-11.640401 16.108346 -0.354521 -2.594454 87.140010 25.544606 -10.389494 2.604440 4.538085 -11.948388 -2.307485 -25.773138 -2.289345 -0.337400 32.669147 2.926523 8.620226 -28.739288 -4.113800 -0.000000 -32.741299 11.444788 -2.123867 2.078741 0.037316 -5.605131 -36.564879 -1.288859 -3.755888 67.814510 -1.918609 -9.471220 -2.382906 -0.981500 -0.000001 -33.375600
-11.360496 16.170752 -0.363321 -11.799784 87.198829 16.385064 -10.541731 2.712768 4.507035 -11.224800 -1.686377 -23.843044 -2.220948 -0.515652 30.231049 2.664761 8.244007 -26.579072 -3.576100 0.000001 -35.753900 11.308250 -1.944234 2.187661 0.751763 -5.261357 -38.825524 -1.204064 -3.859112 68.094072 -1.868597 -9.053828 -3.909934 -0.743700 -0.000001 -32.731900
-11.076885 16.233972 -0.369494 -20.585218 87.377147 7.663661 -10.700333 2.802657 4.497618 -10.486676 -1.230607 -21.976337 -2.116380 -0.675405 27.898386 2.401348 7.918388 -24.156876 -3.029300 -0.000000 -38.965701 11.148275 -1.813512 2.297507 1.497240 -5.001636 -41.025433 -1.085626 -3.970374 68.035644 -1.841910 -8.727989 -5.322845 -0.543300 -0.000000 -31.864499
-10.789828 16.297393 -0.372711 -29.274592 87.655582 -0.937452 -10.888037 2.879517 4.514152 -9.757190 -0.948008 -20.192246 -1.981178 -0.809142 25.689130 2.141932 7.652638 -21.489741 -2.479400 0.000000 -42.321400 10.941670 -1.731154 2.409734 2.245608 -4.808338 -43.170751 -0.939138 -4.079985 67.658684 -1.837207 -8.479184 -6.603083 -0.375100 0.000000 -30.703800
-10.499496 16.360360 -0.372650 -38.153427 87.995930 -9.696297 -11.119545 2.955248 4.558857 -9.056322 -0.826906 -18.509066 -1.823520 -0.910030 23.605864 1.891997 7.449887 -18.601648 -1.930000 -0.000001 -45.747800 10.675491 -1.686750 2.528481 2.976163 -4.651619 -45.271801 -0.771271 -4.175202 66.986177 -1.850502 -8.282069 -7.735339 -0.235700 0.000000 -29.283900
-10.205864 16.422344 -0.369274 -47.383042 88.346099 -18.764882 -11.399170 3.044887 4.630551 -8.395216 -0.834293 -16.941210 -1.652687 -0.973275 21.633231 1.656543 7.307026 -15.516316 -1.382800 -0.000001 -49.181200 10.348822 -1.663809 2.659924 3.681747 -4.491126 -47.338427 -0.588053 -4.243165 66.037657 -1.876153 -8.106528 -8.712216 -0.123200 0.000000 -27.734500
-9.908920 16.482680 -0.362644 -56.777371 88.649539 -27.950580 -11.715094 3.163604 4.724009 -7.777254 -0.919132 -15.495750 -1.478140 -0.997419 19.744854 1.440332 7.213201 -12.260925 -0.839900 0.000000 -52.528900 9.976997 -1.644455 2.812601 4.366733 -4.283015 -49.378814 -0.392954 -4.275367 64.828376 -1.907243 -7.918375 -9.540966 -0.035700 0.000000 -26.234700
-9.608405 16.540754 -0.353122 -65.812516 88.861225 -36.724045 -12.043776 3.318759 4.828755 -7.191386 -1.014680 -14.172619 -1.307145 -0.986399 17.906431 1.246622 7.147111 -8.857283 -0.304200 -0.000001 -55.716399 9.585605 -1.621906 2.997591 5.051857 -3.985742 -51.395491 -0.183544 -4.271720 63.357966 -1.937068 -7.685803 -10.240867 0.029199 0.000000 -24.986400
-9.304051 16.595990 -0.341202 -73.686878 88.958772 -44.283131 -12.360748 3.506591 4.930612 -6.620627 -1.046033 -12.964270 -1.144736 -0.949123 16.083647 1.076530 7.077690 -5.322854 0.217301 0.000000 -58.670100 9.198958 -1.607497 3.228225 5.763250 -3.568466 -53.384669 0.048937 -4.240079 61.610875 -1.959532 -7.380115 -10.838307 0.074000 -0.000001 -24.200100
-8.995514 16.647766 -0.327516 -79.710129 88.940259 -49.940667 -12.654670 3.715106 5.013773 -6.046638 -0.931416 -11.861112 -0.995298 -0.896057 14.246753 0.928540 6.964453 -1.672138 0.711700 0.000000 -61.323200 8.827534 -1.627717 3.518138 6.525528 -3.010126 -55.332331 0.317642 -4.189061 59.554215 -1.969238 -6.977574 -11.354493 0.100900 0.000000 -24.110700
-8.682557 16.695327 -0.312652 -83.600120 88.811845 -53.422131 -12.928207 3.932116 5.062574 -5.455099 -0.584579 -10.855701 -0.864699 -0.835065 12.377589 0.799608 6.759314 2.077896 1.157000 -0.000000 -63.614600 8.468839 -1.711605 3.879022 7.356947 -2.296197 -57.210154 0.636897 -4.120689 57.140222 -1.960675 -6.460467 -11.790575 0.109300 0.000000 -24.995500
-8.365030 16.737882 -0.297178 -85.561890 88.577136 -54.943633 -13.192185 4.149347 5.061467 -4.832464 0.082380 -9.945541 -0.760786 -0.769808 10.472790 0.686771 6.406001 5.904647 1.518301 -0.000000 -65.494799 8.113959 -1.881306 4.319426 8.272410 -1.413263 -58.970182 1.020777 -4.026839 54.304236 -1.927295 -5.819739 -12.116332 0.095300 -0.000000 -27.158000
-8.043073 16.774458 -0.281459 -86.097359 88.238192 -55.023002 -13.456708 4.362819 4.995211 -4.169437 1.149614 -9.130829 -0.693305 -0.700746 8.552471 0.588625 5.837898 9.769580 1.745100 -0.000000 -66.910601 7.756253 -2.146221 4.843237 9.278914 -0.359456 -60.546480 1.482794 -3.890326 50.975300 -1.860274 -5.054161 -12.275849 0.054200 0.000000 -30.799600
-7.717207 16.803893 -0.265244 -85.776960 87.807504 -54.253324 -13.726299 4.570671 4.850822 -3.468197 2.668221 -8.405685 -0.672367 -0.627370 6.657260 0.506773 4.988109 13.618222 1.773500 -0.000001 -67.807700 7.395606 -2.499285 5.447632 10.365600 0.842944 -61.861100 2.034680 -3.686664 47.096808 -1.748591 -4.168101 -12.213333 -0.014700 0.000000 -35.774800
-7.388295 16.824927 -0.247980 -85.096749 87.310815 -53.158444 -14.001829 4.769976 4.619678 -2.735199 4.646807 -7.754703 -0.705446 -0.550301 4.846478 0.445645 3.798325 17.374505 1.534800 -0.000000 -68.126200 7.036432 -2.916474 6.121586 11.504050 2.146923 -62.834962 2.681541 -3.385843 42.653393 -1.582291 -3.177735 -11.893644 -0.104700 -0.000000 -41.440100
-7.057544 16.836279 -0.228629 -84.394995 86.795659 -52.108265 -14.279921 4.957127 4.302039 -1.982661 7.032202 -7.148684 -0.794778 -0.472433 3.191705 0.411170 2.240252 20.941118 0.975001 -0.000000 -67.797400 6.689330 -3.354803 6.842413 12.636759 3.476038 -63.407665 3.409361 -2.959066 37.708558 -1.355616 -2.118215 -11.290200 -0.204500 0.000000 -46.910201
-6.726401 16.836743 -0.205598 -83.799696 86.336908 -51.263509 -14.547534 5.132196 3.915449 -1.239468 9.671717 -6.530409 -0.933812 -0.398782 1.747443 0.409096 0.374327 24.213783 0.097900 0.000001 -66.753100 6.376541 -3.754004 7.569651 13.668031 4.719630 -63.575762 4.171610 -2.397161 32.451089 -1.069097 -1.039618 -10.374503 -0.301100 0.000000 -51.535599
-6.396313 16.825496 -0.177884 -83.420303 85.999923 -50.760045 -14.796796 5.297069 3.486940 -0.513458 12.397178 -5.862068 -1.107678 -0.333990 0.586698 0.437841 -1.705646 27.070222 -1.044500 -0.000000 -64.934999 6.117420 -4.062826 8.252846 14.510886 5.782070 -63.397669 4.894848 -1.728420 27.186467 -0.737659 -0.013751 -9.138800 -0.382900 -0.000000 -55.101400
-6.068458 16.802196 -0.144793 -83.293537 85.837951 -50.645423 -15.014352 5.459619 3.060272 0.181959 14.977246 -5.100960 -1.291012 -0.280564 -0.258098 0.490853 -3.795121 29.416005 -2.309000 -0.000000 -62.356600 5.930426 -4.254002 8.834020 15.107908 6.582866 -63.013229 5.503128 -1.034708 22.341659 -0.384759 0.919577 -7.656759 -0.435700 -0.000000 -57.655900
-5.743640 16.767182 -0.106531 -83.482573 85.865067 -50.968109 -15.188765 5.627569 2.684106 0.836603 17.174672 -4.230718 -1.451487 -0.237019 -0.781404 0.556784 -5.629635 31.196866 -3.492900 -0.000000 -59.136699 5.819690 -4.338904 9.271224 15.461766 7.101825 -62.603910 5.950836 -0.426839 18.354422 -0.039056 1.750136 -6.077096 -0.448601 -0.000000 -59.463800
-5.422255 16.721432 -0.064256 -84.126280 86.047457 -51.825932 -15.318360 5.800081 2.394150 1.449382 18.821052 -3.288202 -1.558284 -0.198623 -0.969020 0.623070 -6.982958 32.390051 -4.405501 0.000000 -55.483000 5.767690 -4.356844 9.558762 15.613703 7.407226 -62.324701 6.231326 0.005370 15.536654 0.266328 2.455613 -4.587763 -0.423100 -0.000000 -60.725900
-5.104542 16.666375 -0.019260 -85.354887 86.333230 -53.298017 -15.404426 5.970940 2.215857 1.999596 19.780556 -2.325879 -1.584936 -0.159207 -0.822777 0.681491 -7.662431 33.019853 -4.889300 0.000001 -51.675000 5.748762 -4.347238 9.713123 15.601551 7.603640 -62.281279 6.357437 0.213311 14.054801 0.503696 3.001908 -3.364281 -0.375400 -0.000000 -61.549900
-4.790720 16.603496 0.027381 -87.246238 86.673759 -55.421574 -15.449716 6.132122 2.163271 2.447018 19.965875 -1.396751 -1.513746 -0.113340 -0.343306 0.730334 -7.552513 33.143365 -4.858700 0.000000 -48.001500 5.740143 -4.333267 9.753724 15.448770 7.783112 -62.526885 6.340582 0.183655 13.971036 0.655629 3.358825 -2.545324 -0.327600 -0.000000 -61.908300
-4.481072 16.534305 0.075115 -89.792445 87.039083 -58.175808 -15.456224 6.277312 2.237824 2.744027 19.357150 -0.538210 -1.339605 -0.058103 0.484804 0.774956 -6.646578 32.833414 -4.320500 0.000001 -44.690500 5.730572 -4.315580 9.686112 15.175216 7.981814 -63.069034 6.181978 -0.076224 15.293820 0.718890 3.532367 -2.220949 -0.293300 0.000000 -61.670300
-4.175975 16.460151 0.123770 -92.932404 87.420472 -61.517503 -15.426383 6.402057 2.425591 2.855759 18.025232 0.226813 -1.072864 0.006125 1.705697 0.826553 -5.063358 32.168163 -3.374600 0.000000 -41.865600 5.721433 -4.272310 9.501285 14.801490 8.173648 -63.865749 5.874280 -0.539031 17.976161 0.701819 3.567772 -2.433001 -0.269899 -0.000000 -60.555500
-3.875831 16.382346 0.173496 -96.579026 87.828620 -65.397154 -15.359728 6.505258 2.704600 2.752947 16.075441 0.911961 -0.734677 0.077417 3.342064 0.900232 -2.967199 31.263348 -2.155900 0.000000 -39.646199 5.725238 -4.163042 9.182207 14.345068 8.283758 -64.816342 5.412773 -1.148714 21.865759 0.621946 3.532093 -3.159146 -0.243700 -0.000000 -58.310200
-3.580757 16.302360 0.223913 -100.746993 88.253292 -69.863787 -15.269665 6.580952 3.026607 2.471649 13.774788 1.479788 -0.364525 0.152109 5.472646 1.005806 -0.672813 30.209593 -0.872700 -0.000000 -37.973200 5.749519 -3.951856 8.741620 13.825628 8.273783 -65.750212 4.817911 -1.807504 26.616133 0.492981 3.446959 -4.325037 -0.209099 0.000000 -54.612600
-3.290446 16.222042 0.273935 -105.378146 88.661011 -74.869675 -15.169939 6.624467 3.345079 2.072534 11.378968 1.893779 -0.000865 0.228574 8.109947 1.145889 1.561242 29.138212 0.317400 0.000001 -36.852300 5.795609 -3.631263 8.218001 13.290680 8.149162 -66.484851 4.149401 -2.411411 31.752502 0.329588 3.314447 -5.825540 -0.167500 0.000000 -49.474100
-3.004131 16.143697 0.321768 -110.162135 88.992353 -80.089107 -15.076896 6.629841 3.617617 1.657223 9.149583 2.088962 0.323649 0.306208 11.231624 1.312013 3.514734 28.171559 1.301501 0.000000 -36.252700 5.855569 -3.240925 7.671462 12.824918 7.968081 -66.884881 3.491219 -2.891991 36.792433 0.143612 3.123426 -7.563005 -0.123499 -0.000000 -43.267700
-2.720732 16.069800 0.365555 -114.396727 89.195719 -84.791393 -15.006596 6.590312 3.819393 1.331692 7.277071 2.008622 0.592773 0.383941 14.762006 1.489137 5.068447 27.409729 2.038400 0.000001 -36.132100 5.914674 -2.855665 7.158159 12.519291 7.797134 -66.897891 2.915407 -3.236640 41.375486 -0.055971 2.867843 -9.453151 -0.077500 -0.000000 -36.750600
-2.439175 16.002703 0.404189 -117.252612 89.253724 -88.119650 -14.976956 6.498784 3.945482 1.169995 5.850345 1.626627 0.808116 0.458873 18.586806 1.663463 6.210366 26.910803 2.548700 -0.000000 -36.436900 5.952282 -2.552286 6.714751 12.430497 7.681189 -66.538948 2.459698 -3.469075 45.300242 -0.264247 2.547915 -11.423386 -0.024400 -0.000000 -30.802900
